<svg xmlns="http://www.w3.org/2000/svg" xmlns:xlink="http://www.w3.org/1999/xlink" width="40" height="40" viewBox="0 0 40 40">
    <defs>
        <linearGradient id="wp37ps1gfc" x1="142.265%" x2="0%" y1="38.276%" y2="0%">
            <stop offset="0%" stop-color="#FFB94F"/>
            <stop offset="100%" stop-color="#FF5A00"/>
        </linearGradient>
        <path id="e1zwqj31ha" d="M36.5 12.725V9.624c0-2.452-2.019-4.448-4.5-4.448H6.5C4.019 5.176 2 7.172 2 9.624v20.752c0 2.452 2.019 4.448 4.5 4.448H32c2.481 0 4.5-1.996 4.5-4.448v-3.1c.87-.307 1.5-1.123 1.5-2.088V14.812c0-.965-.63-1.78-1.5-2.087zm-3 17.651c0 .817-.672 1.483-1.5 1.483H6.5c-.83 0-1.5-.666-1.5-1.483V9.624c0-.817.67-1.483 1.5-1.483H32c.828 0 1.5.666 1.5 1.483v2.964H26c-4.136 0-7.5 3.325-7.5 7.412s3.364 7.412 7.5 7.412h7.5v2.964zm1.5-5.929h-9c-2.481 0-4.5-1.995-4.5-4.447s2.019-4.447 4.5-4.447h9v8.894zM24.5 20c0 .818.67 1.482 1.5 1.482s1.5-.664 1.5-1.482-.67-1.482-1.5-1.482-1.5.664-1.5 1.482z"/>
    </defs>
    <g fill="none" fill-rule="evenodd">
        <mask id="69l08e1w5b" fill="#fff">
            <use xlink:href="#e1zwqj31ha"/>
        </mask>
        <g fill="url(#wp37ps1gfc)" stroke="#979797" mask="url(#69l08e1w5b)">
            <path d="M0.5 0.5H39.5V39.5H0.5z"/>
        </g>
    </g>
</svg>
