<svg xmlns="http://www.w3.org/2000/svg" width="40" height="40" viewBox="0 0 40 40">
    <g fill="none" fill-rule="evenodd">
        <g>
            <g>
                <g>
                    <path d="M0.68 0H40.68V40H0.68z" transform="translate(-330 -797) translate(150 741) translate(180 56)"/>
                    <g stroke="#FFF" stroke-width="2.6">
                        <path d="M.2 17.969h2.97L16.622 28.68c1.14.908 2.76.892 3.881-.039l1.207-1.002h0c.965.707 2.318.508 3.038-.446l1.106-1.466h0c1.106.643 2.513.42 3.365-.535l.97-1.089h0c.951.607 2.204.411 2.925-.455l.014-.017c.723-.869.667-2.145-.13-2.947L29.33 17h0" transform="translate(-330 -797) translate(150 741) translate(180 56) translate(1 4.5)"/>
                        <path d="M39.301 17.158H34.75c-.92 1.431-2.826 1.846-4.258.925-.206-.133-.397-.29-.566-.468l-7.438-7.82c-.338-.357-.881-.423-1.295-.158l-7.137 4.56c-1.091.696-2.517.553-3.448-.347-.799-.772-.82-2.046-.048-2.845.043-.044.088-.087.135-.128l8.154-7.004c2.69-2.31 6.559-2.632 9.593-.798l5.121 3.098c.312.189.67.288 1.035.288h4.704" transform="translate(-330 -797) translate(150 741) translate(180 56) translate(1 4.5)"/>
                        <path d="M0 7.662l3.299-.044c1.513-.02 2.996-.432 4.303-1.194 1.306-.762 2.791-1.164 4.304-1.164H17.5" transform="translate(-330 -797) translate(150 741) translate(180 56) translate(1 4.5)"/>
                    </g>
                </g>
            </g>
        </g>
    </g>
</svg>
