<svg
	xmlns="http://www.w3.org/2000/svg"
	xmlns:xlink="http://www.w3.org/1999/xlink" width="18px"
	height="16px" viewBox="0 0 18 16" version="1.1">
	<!-- Generator: Sketch 48.1 (47250) - http://www.bohemiancoding.com/sketch -->
	<title>linkedin</title>
	<desc>Created with Sketch.</desc>
	<defs>
		<linearGradient xy="100%" id="gradient">
			<stop stop-color="#fff" offset="0%"></stop>
			<stop stop-color="#fff" offset="100%"></stop>
		</linearGradient>
	</defs>
	<g id="Standard-Bank---Icon-Setup" stroke="none" stroke-width="1"
		fill="none" fill-rule="evenodd"
		transform="translate(-374.000000, -469.000000)">
		<g id="linkedin" transform="translate(374.000000, 469.000000)"
			fill="#FFFFFE" fill-rule="nonzero">
			<path
				d="M17.400676,15.6244167 L13.642259,15.6244167 L13.642259,10.12775 C13.642259,8.69219444 13.055759,7.71233333 11.763287,7.71233333 C10.774926,7.71233333 10.225731,8.37344444 9.969315,9.0133056 C9.872037,9.2399722 9.888093,9.5610833 9.888093,9.8774722 L9.888093,15.6244167 L6.165565,15.6244167 C6.165565,15.6244167 6.215148,5.89427778 6.165565,5.00980556 L9.888093,5.00980556 L9.888093,6.67438889 C10.108148,5.94716667 11.297204,4.90780556 13.195065,4.90780556 C15.550037,4.90780556 17.400676,6.43402778 17.400676,9.7216389 L17.400676,15.6244167 Z M2.401009,3.68238889 L2.376926,3.68238889 C1.178426,3.68238889 0.400676,2.86969444 0.400676,1.84166667 C0.400676,0.79522222 1.20062,0 2.425093,0 C3.646259,0 4.398037,0.79333333 4.422593,1.83930556 C4.422593,2.86780556 3.646259,3.68238889 2.401009,3.68238889 Z M0.828037,15.6244167 L4.143509,15.6244167 L4.143509,5.00980556 L0.828037,5.00980556 L0.828037,15.6244167 Z">
			</path>
		</g>
	</g>
</svg>