<?xml version="1.0" encoding="UTF-8"?>
<svg width="31px" height="23px" viewBox="0 0 31 23" version="1.1" xmlns="http://www.w3.org/2000/svg" xmlns:xlink="http://www.w3.org/1999/xlink">
    <title>Group</title>
    <g id="Katlego-Version-2" stroke="none" stroke-width="1" fill="none" fill-rule="evenodd">
        <g id="1.-Landing" transform="translate(-1296.000000, -829.000000)" fill="#FFFFFF">
            <g id="Group-10" transform="translate(218.128352, 689.975985)">
                <g id="Group-15" transform="translate(44.871648, 112.024015)">
                    <g id="Group-6" transform="translate(1012.000000, 0.000000)">
                        <g id="Group" transform="translate(21.000000, 27.000000)">
                            <path d="M16.1204444,13.7693333 C17.9668333,12.3688889 19.1666667,10.1570556 19.1666667,7.66666667 C19.1666667,3.4385 15.7281667,0 11.5,0 C7.27183333,0 3.83333333,3.4385 3.83333333,7.66666667 C3.83333333,10.1570556 5.03316667,12.3688889 6.87827778,13.7680556 C3.19955556,15.3997778 0.486833333,18.8868333 0,23 L2.58238889,23 C3.23916667,18.7130556 7.03161111,15.3333333 11.5,15.3333333 C15.9683889,15.3333333 19.7480556,18.7130556 20.4048333,23 L22.9872222,23 C22.5003889,18.8868333 19.7940556,15.4010556 16.1204444,13.7693333 Z M6.38888889,7.66666667 C6.38888889,4.84916667 8.68122222,2.55555556 11.5,2.55555556 C14.3187778,2.55555556 16.6111111,4.84916667 16.6111111,7.66666667 C16.6111111,10.4841667 14.3187778,12.7777778 11.5,12.7777778 C8.68122222,12.7777778 6.38888889,10.4841667 6.38888889,7.66666667 L6.38888889,7.66666667 Z" id="Fill-8"></path>
                            <path d="M26.4883333,13.6083333 C27.5105556,12.3190556 28.0983333,10.7077778 28.0983333,8.94444444 C28.0983333,4.30738889 24.0081667,0.780722222 19.5116667,1.34166667 C19.8566667,1.77738889 20.1633333,2.23611111 20.4316667,2.72166667 C20.6361111,3.07944444 20.8277778,3.46277778 20.9811111,3.85888889 C23.9762222,4.35722222 25.5427778,6.59333333 25.5427778,8.94444444 C25.5427778,10.6438889 24.6994444,12.1388889 23.5366667,13.0077778 C23.1916667,13.2773889 22.9872222,13.6722222 22.9872222,14.1066667 L22.9872222,14.1577778 C22.9872222,14.7723889 23.4216667,15.3090556 24.0362778,15.4483333 C26.2966667,15.9211111 28.1111111,17.94 28.1111111,20.4444444 L30.6411111,20.4444444 C30.6411111,17.4672222 28.9544444,14.8861111 26.4883333,13.6083333" id="Fill-9"></path>
                        </g>
                    </g>
                </g>
            </g>
        </g>
    </g>
</svg>