<svg
  xmlns="http://www.w3.org/2000/svg"
  width="28px"
  height="34px"
  viewBox="0 0 28 34"
  version="1.1"
>
  <!-- Generator: Sketch 48.2 (47327) - http://www.bohemiancoding.com/sketch -->
  <title>icon-anchor</title>
  <desc>Created with Sketch.</desc>
  <defs>
	<linearGradient xy="100%" id="gradient1">
	  <stop stop-color="#fff" offset="0%"></stop>
	  <stop stop-color="#fff" offset="100%"></stop>
	</linearGradient>
  </defs>
  <g
	id="Standard-Bank---Icon-Setup1"
	stroke="none"
	stroke-width="1"
	fill="none"
	fill-rule="evenodd"
	transform="translate(-237.000000, -3763.000000)"
  >
	<g
	  id="Icons---Files"
	  transform="translate(69.000000, 3673.000000)"
	  fill="#FFFFFF"
	>
	  <g
		id="icon-anchor"
		transform="translate(165.000000, 90.000000)"
	  >
		<path
		  d="M14.2,5.66666667 C14.2,4.10408333 15.4558,2.83333333 17,2.83333333 C18.5428,2.83333333 19.8,4.10408333 19.8,5.66666667 C19.8,7.22925 18.5428,8.5 17,8.5 C15.4558,8.5 14.2,7.22925 14.2,5.66666667 Z M28.2,19.8333333 C28.2,25.602 23.916,30.3676667 18.4,31.0675 L18.4,17 L24,17 L24,14.1666667 L18.4,14.1666667 L18.4,11.1321667 C20.8094,10.4989167 22.6,8.29883333 22.6,5.66666667 C22.6,2.5415 20.0884,0 17,0 C13.9116,0 11.4,2.5415 11.4,5.66666667 C11.4,8.29883333 13.1906,10.4989167 15.6,11.1321667 L15.6,14.1666667 L10,14.1666667 L10,17 L15.6,17 L15.6,31.0675 C10.084,30.3676667 5.8,25.602 5.8,19.8333333 L3,19.8333333 C3,27.6448333 9.2804,34 17,34 C24.7196,34 31,27.6448333 31,19.8333333 L28.2,19.8333333 Z"
		></path>
	  </g>
	</g>
  </g></svg>