<!--?xml version="1.0" encoding="UTF-8" standalone="no"?--><svg
	xmlns="http://www.w3.org/2000/svg"
	xmlns:xlink="http://www.w3.org/1999/xlink" width="34px"
	height="26px" viewBox="0 0 34 26" version="1.1">
	<!-- Generator: Sketch 48.2 (47327) - http://www.bohemiancoding.com/sketch -->
	<title>icon-cloud</title>
	<desc>Created with Sketch.</desc>
	<defs>
		<linearGradient xy="100%" id="gradient">
			<stop stop-color="#fff" offset="0%"></stop>
			<stop stop-color="#fff" offset="100%"></stop>
		</linearGradient>
	</defs>
	<g id="Standard-Bank---Icon-Setup" stroke="none"
		stroke-width="1" fill="none" fill-rule="evenodd"
		transform="translate(-101.000000, -2606.000000)">
		<g id="Icons---Communication"
			transform="translate(69.000000, 2513.000000)"
			fill="#FFFFFF">
			<g id="icon-cloud"
				transform="translate(32.000000, 89.000000)">
				<path
					d="M26.9166667,30 L7.08333333,30 C3.17758333,30 0,26.7601111 0,22.7777778 C0,20.8465556 0.742333333,19.0337778 2.09383333,17.676 C3.077,16.6605556 4.31516667,15.9802222 5.66808333,15.7 C5.66666667,15.6523333 5.66666667,15.6046667 5.66666667,15.5555556 C5.66666667,9.18411111 10.7510833,4 17,4 C23.2489167,4 28.3333333,9.18411111 28.3333333,15.5555556 C28.3333333,15.6104444 28.3333333,15.6638889 28.3319167,15.7158889 C31.6001667,16.4164444 34,19.3168889 34,22.7777778 C34,26.7601111 30.8224167,30 26.9166667,30 Z M7.19666667,18.4444444 C5.95141667,18.4444444 4.89175,18.898 4.097,19.7198889 C3.27675,20.5432222 2.83333333,21.6251111 2.83333333,22.7777778 C2.83333333,25.1668889 4.74016667,27.1111111 7.08333333,27.1111111 L26.9166667,27.1111111 C29.2598333,27.1111111 31.1666667,25.1668889 31.1666667,22.7777778 C31.1666667,20.3886667 29.2598333,18.4444444 26.9166667,18.4444444 L25.20675,18.4444444 L25.41075,16.7313333 C25.47025,16.4092222 25.5,16.025 25.5,15.5555556 C25.5,10.7758889 21.68775,6.88888889 17,6.88888889 C12.31225,6.88888889 8.5,10.7758889 8.5,15.5555556 C8.5,16.025 8.52833333,16.4092222 8.58783333,16.7313333 L8.90658333,18.4444444 L7.19666667,18.4444444 Z">
				</path>
			</g>
		</g>
	</g>
</svg>