<svg
	xmlns="http://www.w3.org/2000/svg"
	width="34px"
	height="34px"
	viewBox="0 0 34 34"
	version="1.1"
	>
	<!-- Generator: Sketch 48.2 (47327) - http://www.bohemiancoding.com/sketch -->
	<title>icon-user-added</title>
	<desc>Created with Sketch.</desc>
	<defs>
	<linearGradient xy="100%" id="gradient2">
	  <stop stop-color="#fff" offset="0%"></stop>
	  <stop stop-color="#fff" offset="100%"></stop>
	</linearGradient>
	</defs>
	<g
	id="Standard-Bank---Icon-Setup2"
	stroke="none"
	stroke-width="1"
	fill="none"
	fill-rule="evenodd"
	transform="translate(-633.000000, -5503.000000)"
	>
	<g
	  id="Icons---Social"
	  transform="translate(69.000000, 5414.000000)"
	>
	  <g
		id="icon-user-added"
		transform="translate(564.000000, 89.000000)"
	  >
		<rect
		  id="Rectangle"
		  x="0"
		  y="0"
		  width="34"
		  height="34"
		></rect>
		<path
		  d="M28.3364019,11.3333333 C28.3364019,5.08441667 23.2534677,0 17.0063731,0 C10.7592785,0 5.6763444,5.08441667 5.6763444,11.3333333 C5.6763444,15.3665833 7.79930854,18.904 10.9802141,20.9128333 C5.34918982,23.0095 1.10892656,27.9565 0,34 L2.88774108,34 C4.32807098,27.5258333 10.1063856,22.6666667 17.0063731,22.6666667 C23.2534677,22.6666667 28.3364019,17.58225 28.3364019,11.3333333 Z M17.0063731,19.8333333 C12.31999,19.8333333 8.50885158,16.0210833 8.50885158,11.3333333 C8.50885158,6.64558333 12.31999,2.83333333 17.0063731,2.83333333 C21.69134,2.83333333 25.5038947,6.64558333 25.5038947,11.3333333 C25.5038947,16.0210833 21.69134,19.8333333 17.0063731,19.8333333 Z M31.9974174,23.4954167 L25.3792644,30.1169167 L21.7140001,26.8883333 L19.8417128,29.0133333 L25.5038947,34 L34,25.4985833 L31.9974174,23.4954167 Z"
		  fill="#FFFFFF"
		></path>
	  </g>
	</g>
	</g>
</svg>