<?xml version="1.0" encoding="UTF-8"?>
<svg width="29px" height="29px" viewBox="0 0 29 29" version="1.1" xmlns="http://www.w3.org/2000/svg" xmlns:xlink="http://www.w3.org/1999/xlink">
    <title>Fill 9</title>
    <g id="Katlego-Version-2" stroke="none" stroke-width="1" fill="none" fill-rule="evenodd">
        <g id="1.-Landing" transform="translate(-999.000000, -829.000000)" fill="#FFFFFF">
            <g id="Group-10" transform="translate(218.128352, 689.975985)">
                <g id="Group-15" transform="translate(44.871648, 112.024015)">
                    <g id="Group-7" transform="translate(712.000000, 0.000000)">
                        <path d="M36.0809167,46.2729167 L37.9429583,47.9815 L40.91425,44.97275 L40.91425,56 L43.3309167,56 L43.3309167,44.9812083 L46.4556667,47.9500833 L48.16425,46.1895417 L42.1225833,40.2916667 L36.0809167,46.2729167 Z M33.66425,51.3177083 L33.66425,41.5 L31.25,41.5 L31.25,51.3080417 L28.12525,48.340375 L26.4166667,50.0997083 L32.4583333,55.9987917 L38.5,50.0175417 L36.6379583,48.3089583 L33.66425,51.3177083 Z M48.1666667,36.8007917 C48.1666667,36.7560833 48.1666667,36.711375 48.1666667,36.6666667 C48.1666667,31.3367083 43.8299583,27 38.5,27 C33.1700417,27 28.8333333,31.3367083 28.8333333,36.6666667 C28.8333333,36.7065417 28.8333333,36.7464167 28.8333333,36.7875 C27.6805833,37.0219167 26.6245,37.5910417 25.7859167,38.4417083 C24.6331667,39.5763333 24,41.0915833 24,42.7083333 C24,44.36375 24.6839167,45.8487917 25.7702083,46.9375 L27.4775833,45.24825 C26.8250833,44.5945417 26.4166667,43.7015833 26.4166667,42.7083333 C26.4166667,41.742875 26.7936667,40.8390417 27.4945,40.1502917 C28.172375,39.46275 29.0762083,39.0833333 30.1383333,39.0833333 L31.5967917,39.0833333 L31.3249167,37.6514583 C31.275375,37.382 31.25,37.059375 31.25,36.6666667 C31.25,32.6682917 34.501625,29.4166667 38.5,29.4166667 C42.4971667,29.4166667 45.75,32.6682917 45.75,36.6666667 C45.75,37.059375 45.724625,37.382 45.673875,37.6514583 L45.499875,39.0833333 L46.9583333,39.0833333 C48.9569167,39.0833333 50.5833333,40.70975 50.5833333,42.7083333 C50.5833333,43.6919167 50.1821667,44.5788333 49.5429583,45.2313333 L51.2587917,46.9072917 C52.32575,45.8197917 53,44.3480417 53,42.7083333 C53,39.8131667 50.9530833,37.3868333 48.1666667,36.8007917 L48.1666667,36.8007917 Z" id="Fill-9"></path>
                    </g>
                </g>
            </g>
        </g>
    </g>
</svg>