<svg xmlns="http://www.w3.org/2000/svg"
  width="31px"
  height="34px"
  viewBox="0 0 31 34"
  version="1.1"
>
  <!-- Generator: Sketch 48.2 (47327) - http://www.bohemiancoding.com/sketch -->
  <title>icon-security</title>
  <desc>Created with Sketch.</desc>
  <defs>
	<linearGradient xy="100%" id="gradient">
	  <stop stop-color="#fff" offset="0%"></stop>
	  <stop stop-color="#fff" offset="100%"></stop>
	</linearGradient>
  </defs>
  <g
	id="Standard-Bank---Icon-Setup"
	stroke="none"
	stroke-width="1"
	fill="none"
	fill-rule="evenodd"
	transform="translate(-635.000000, -3182.000000)"
  >
	<g
	  id="Icons---Banking"
	  transform="translate(69.000000, 3093.000000)"
	  fill="#FFFFFF"
	>
	  <g
		id="icon-security"
		transform="translate(564.000000, 89.000000)"
	  >
		<path
		  d="M16.8391364,34 L16.3614545,33.9036667 C7.63918182,30.4965833 2,23.3835 2,15.7830833 L2,12.7726667 C2,11.98925 2.62986364,11.356 3.40909091,11.356 C4.18831818,11.356 4.81818182,11.98925 4.81818182,12.7726667 L4.81818182,15.7830833 C4.81818182,22.0716667 9.54568182,28.0273333 16.9053636,31.0703333 C24.8681364,28.1775 30.1818182,21.9030833 30.1818182,15.32975 L30.1818182,6.34666667 C26.4026364,4.17633333 22.0358636,2.83333333 17.5,2.83333333 C13.3854545,2.83333333 9.39490909,3.978 5.86513636,5.77858333 L22.6488182,20.3773333 C23.2378182,20.8901667 23.3012273,21.7840833 22.7925455,22.37625 C22.2838636,22.9684167 21.3947273,23.0321667 20.8057273,22.52075 L2.79472727,6.85383333 C2.40440909,6.53791667 2.16768182,6.00525 2.20431818,5.46125 C2.25645455,4.87758333 2.56504545,4.39025 3.03286364,4.11258333 C7.32354545,1.55266667 12.3272273,0 17.5,0 C23.3364545,0 28.2288182,1.79916667 33,4.74866667 L33,15.32975 C33,23.2489167 26.6999545,30.72325 17.3266818,33.9249167 L16.8391364,34"
		></path>
	  </g>
	</g>
  </g></svg>