<!--?xml version="1.0" encoding="UTF-8"?-->
<svg
	xmlns="http://www.w3.org/2000/svg"
	xmlns:xlink="http://www.w3.org/1999/xlink"
	width="32px"
	height="33px"
	viewBox="0 0 32 33"
	version="1.1"
>
	<!-- Generator: Sketch 48.1 (47250) - http://www.bohemiancoding.com/sketch -->
	<title>gradient-icon-call-you</title>
	<desc>Created with Sketch.</desc>
	<defs>
	<linearGradient
		xy="100%"
		id="gradient-fef6ccc2-ec03-42f5-98c5-9ed9010f9c00"
	>
		<stop stop-color="#ff5a00" offset="0%"></stop>
		<stop stop-color="#ffb94f" offset="100%"></stop>
	</linearGradient>
	</defs>
	<g
	id="Standard-Bank---Icon-Setup"
	stroke="none"
	stroke-width="1"
	fill="none"
	fill-rule="evenodd"
	transform="translate(-103.000000, -9263.000000)"
	>
	<g
		id="Icons---Custom"
		transform="translate(69.000000, 8658.000000)"
	>
		<g
		id="gradient-icon-call-you"
		transform="translate(33.000000, 604.000000)"
		>
		<rect
			id="Rectangle-Copy-2"
			x="0"
			y="0"
			width="34"
			height="34"
		></rect>
		<path
			d="M31.3353186,22.7997469 L25.2391038,19.6569778 C23.9138397,18.9754134 22.2477935,19.3161956 21.3011763,20.5278656 L19.6729947,22.6104234 C18.0826778,21.7016709 16.6438197,20.6793243 15.0535028,19.0511428 C13.3874565,17.3850965 12.4029746,15.984103 11.4563574,14.3180568 L13.5389153,12.6898752 C14.7127206,11.743258 15.0913675,10.1150764 14.4098031,8.75194767 L11.267034,2.69359761 C10.8505224,1.89843917 10.1310934,1.33046885 9.26020554,1.10328072 C8.38931772,0.876092595 7.48056522,1.02755135 6.72327146,1.51979229 L2.8610733,4.09459106 C1.6115386,4.92761419 0.929974218,6.32860764 1.00570359,7.84319516 C1.11929766,9.43351205 1.27075641,10.6451821 1.49794453,11.5160699 C2.67174986,16.0598324 5.47373676,20.717189 9.4116643,24.6551166 C13.3495918,28.5930441 18.0069484,31.395031 22.550711,32.5688363 C23.4215988,32.7960244 24.6711335,32.9474832 26.2235857,33.0610773 C26.2993151,33.0610773 26.4129091,33.0610773 26.4886385,33.0610773 C27.889632,33.0610773 29.214896,32.3416482 29.9721898,31.1678429 L32.5091239,27.26778 C33.0013648,26.5104863 33.1149589,25.6017338 32.8877708,24.7687106 C32.6605826,23.9356875 32.130477,23.2162584 31.3353186,22.7997469 Z M30.6158895,26.05611 L28.0789554,29.9561729 C27.7003085,30.5241432 27.0566088,30.8649254 26.3750445,30.8270607 C24.974051,30.7513313 23.8381104,30.5998726 23.1186813,30.4105491 C18.9914303,29.3503379 14.6748559,26.7376744 11.0398459,23.0647997 C7.36697115,19.391925 4.79217238,15.1132152 3.69409643,10.9859642 C3.50477299,10.2665352 3.35331424,9.13059455 3.27758486,7.72960109 C3.23972018,7.04803671 3.54263768,6.40433702 4.110608,6.02569014 L7.97280616,3.45089137 C8.1621296,3.3372973 8.31358835,3.29943262 8.4650471,3.29943262 C8.54077647,3.29943262 8.61650585,3.29943262 8.69223523,3.3372973 C8.84369398,3.37516199 9.10874679,3.48875606 9.26020554,3.79167356 L12.4029746,9.85002361 C12.5922981,10.2286705 12.478704,10.6830467 12.1757865,10.9480996 L8.57864116,13.7500865 L9.03301742,14.5831096 C10.2068227,16.7792615 11.3427634,18.5589018 13.5010506,20.6793243 C15.5836084,22.7618822 17.4011134,23.9356875 19.521536,25.0716281 L20.3545591,25.5260044 L23.1944107,21.8909943 C23.4594635,21.5502122 23.9138397,21.4744828 24.2924866,21.6638062 L30.3887014,24.8065753 C30.6158895,24.9201694 30.7673482,25.1094928 30.8430776,25.3745456 C30.8052129,25.6017338 30.7673482,25.8667866 30.6158895,26.05611 Z M30.7777778,7.66666667 L30.7777778,9.88888889 L24.1111111,9.88888889 L24.1111111,3.22222222 L26.3333333,3.22222222 L26.3333333,6.09555556 L31.43,1 L33,2.57 L27.9022222,7.66666667 L30.7777778,7.66666667 Z"
			id="Shape"
			fill="url(#gradient-fef6ccc2-ec03-42f5-98c5-9ed9010f9c00)"
			fill-rule="nonzero"
		></path>
		</g>
	</g>
	</g>
</svg>