<svg width="27" height="26" viewBox="0 0 27 26" xmlns="http://www.w3.org/2000/svg" xmlns:xlink="http://www.w3.org/1999/xlink">
    <defs>
        <linearGradient x1="142.265%" y1="38.281%" x2="0%" y2=".025%" id="qikiftrndc">
            <stop stop-color="#FFB94F" offset="0%"/>
            <stop stop-color="#FF5A00" offset="100%"/>
        </linearGradient>
        <path d="m8.359 18.674.462.445a6.035 6.035 0 0 0 8.363 0l.462-.443.587.252c.246.105.496.207.746.308 2.091.85 4.695 1.907 4.695 5.464h-1.94c0-2.137-1.259-2.752-3.483-3.656l-.211-.086-.174.138a7.949 7.949 0 0 1-4.548 1.65l-.21.006h-.21a7.953 7.953 0 0 1-4.93-1.792l-.104.043-.105.043c-2.226.914-3.486 1.536-3.486 3.654h-1.94c0-3.53 2.6-4.6 4.692-5.459.25-.102.498-.205.744-.311l.59-.256zM13.003 1.3c4.279 0 7.76 3.5 7.76 7.8v6.825h-1.94v-5.363c-2.167.717-4.48.63-6.352-.07-1.487-.556-2.578-1.473-3.127-2.607a3.863 3.863 0 0 1 1.257-1.823c.136 1.043 1.194 2.096 2.547 2.601 1.78.667 3.97.587 5.645-.162-.3-2.945-2.78-5.251-5.79-5.251-3.21 0-5.82 2.624-5.82 5.85v6.825h-1.94V9.1c0-4.3 3.481-7.8 7.76-7.8z" id="uoksh1a8na"/>
    </defs>
    <g fill="none" fill-rule="evenodd">
        <mask id="xsu5a6ngdb" fill="#fff">
            <use xlink:href="#uoksh1a8na"/>
        </mask>
        <g mask="url(#xsu5a6ngdb)" fill="url(#qikiftrndc)" stroke="#979797" stroke-width="1.168">
            <path d="M.584.584h24.839v24.832H.584z"/>
        </g>
    </g>
</svg>
