<?xml version="1.0" encoding="UTF-8"?>
<svg width="29px" height="26px" viewBox="0 0 29 26" version="1.1" xmlns="http://www.w3.org/2000/svg" xmlns:xlink="http://www.w3.org/1999/xlink">
    <title>Fill 11</title>
    <g id="Katlego-Version-2" stroke="none" stroke-width="1" fill="none" fill-rule="evenodd">
        <g id="1.-Landing" transform="translate(-397.000000, -831.000000)" fill="#FFFFFF">
            <g id="Group-10" transform="translate(218.128352, 689.975985)">
                <g id="Group-15" transform="translate(44.871648, 112.024015)">
                    <g id="Icon1" transform="translate(112.000000, 0.000000)">
                        <path d="M26.7272727,29 L26.7272727,32.5454545 L29.0909091,32.5454545 L29.0909091,31.3636364 L48,31.3636364 L48,33.7272727 L24.3636364,33.7272727 L24.3636364,29 L22,29 L22,36.0909091 L50.3636364,36.0909091 L50.3636364,29 L26.7272727,29 Z M26.7272727,42 L29.0909091,42 L29.0909091,40.8181818 L48,40.8181818 L48,43.1818182 L24.3636364,43.1818182 L24.3636364,38.4545455 L22,38.4545455 L22,45.5454545 L50.3636364,45.5454545 L50.3636364,38.4545455 L26.7272727,38.4545455 L26.7272727,42 Z M26.7272727,51.4545455 L29.0909091,51.4545455 L29.0909091,50.2727273 L48,50.2727273 L48,52.6363636 L24.3636364,52.6363636 L24.3636364,47.9090909 L22,47.9090909 L22,55 L50.3636364,55 L50.3636364,47.9090909 L26.7272727,47.9090909 L26.7272727,51.4545455 L26.7272727,51.4545455 Z" id="Fill-11"></path>
                    </g>
                </g>
            </g>
        </g>
    </g>
</svg>