<svg
	xmlns="http://www.w3.org/2000/svg"
	xmlns:xlink="http://www.w3.org/1999/xlink" width="18px"
	height="14px" viewBox="0 0 18 14" version="1.1">
	<!-- Generator: Sketch 48.1 (47250) - http://www.bohemiancoding.com/sketch -->
	<title>twitter</title>
	<desc>Created with Sketch.</desc>
	<defs>
		<linearGradient xy="100%" id="gradient">
			<stop stop-color="#fff" offset="0%"></stop>
			<stop stop-color="#fff" offset="100%"></stop>
		</linearGradient>
	</defs>
	<g id="Standard-Bank---Icon-Setup" stroke="none" stroke-width="1"
		fill="none" fill-rule="evenodd"
		transform="translate(-241.000000, -470.000000)">
		<g id="twitter" transform="translate(241.000000, 470.000000)"
			fill="#FFFFFE" fill-rule="nonzero">
			<path
				d="M17.8013519,1.63577778 C17.1756574,1.91297222 16.503213,2.10044444 15.7981852,2.1845 C16.5192685,1.75288889 17.0722407,1.07005556 17.3314907,0.25594444 C16.6571574,0.65544444 15.9119907,0.94538889 15.1158241,1.10075 C14.4816296,0.42311111 13.5740185,0 12.5705463,0 C10.6452963,0 9.0836574,1.56163889 9.0836574,3.48736111 C9.0836574,3.76125 9.1134074,4.02663889 9.1738519,4.28163889 C6.2758241,4.13572222 3.7059907,2.74880556 1.9842685,0.6375 C1.6839352,1.15411111 1.5129907,1.75288889 1.5129907,2.39227778 C1.5129907,3.60116667 2.1287685,4.66886111 3.0637685,5.29502778 C2.4933241,5.27755556 1.9545185,5.11936111 1.4832407,4.85963889 L1.4832407,4.90213889 C1.4832407,6.59316667 2.6859907,8.00275 4.2821019,8.3219722 C3.9897963,8.4036667 3.6823796,8.44475 3.3631574,8.44475 C3.1383796,8.44475 2.9197407,8.4239722 2.7072407,8.3828889 C3.1511296,9.7683889 4.4379352,10.7770556 5.9651019,10.8039722 C4.7708519,11.7399167 3.2663519,12.2971389 1.6334074,12.2971389 C1.351963,12.2971389 1.0738241,12.2815556 0.8013519,12.2489722 C2.3450463,13.2378056 4.178213,13.8153333 6.1469074,13.8153333 C12.5639352,13.8153333 16.0706574,8.5018889 16.0706574,3.89252778 C16.0706574,3.74094444 16.0678241,3.58983333 16.061213,3.44108333 C16.7431019,2.94902778 17.3357407,2.33466667 17.8013519,1.63577778">
			</path>
		</g>
	</g>
</svg>