<?xml version="1.0" encoding="UTF-8"?>
<svg width="27px" height="25px" viewBox="0 0 27 25" version="1.1" xmlns="http://www.w3.org/2000/svg" xmlns:xlink="http://www.w3.org/1999/xlink">
    <title>6AB4041A-259B-464D-8E79-BCB54FA75B23</title>
    <g id="Authenticated-Dev-handover-08122021" stroke="none" stroke-width="1" fill="none" fill-rule="evenodd">
        <g id="OH_Dev-handover_12122021_7" transform="translate(-1170.000000, -196.000000)" fill="#1A1A1A" stroke="#1A1A1A" stroke-width="0.25">
            <g id="Web---Request-access-modal-Copy" transform="translate(220.000000, 174.549362)">
                <path d="M975.863415,45.1079508 C976.045528,45.2790423 976.045528,45.5558274 975.863415,45.726919 C975.772358,45.8121344 975.652361,45.8550725 975.532364,45.8550725 C975.412367,45.8550725 975.29237,45.8121344 975.202019,45.726919 L963.499471,34.7764007 L951.79904,45.726919 C951.706572,45.8121344 951.587986,45.8550725 951.467989,45.8550725 C951.348698,45.8550725 951.228701,45.8121344 951.137644,45.726919 C950.954119,45.5558274 950.954119,45.2790423 951.137644,45.1079508 L962.839486,34.1574325 L951.137644,23.2069142 C950.954119,23.0358226 950.954119,22.7590375 951.137644,22.587946 C951.319757,22.4168544 951.615515,22.4168544 951.79904,22.587946 L963.499471,33.5384643 L975.202019,22.587946 C975.384838,22.4168544 975.67989,22.4168544 975.863415,22.587946 C976.045528,22.7590375 976.045528,23.0358226 975.863415,23.2069142 L964.161573,34.1574325 L975.863415,45.1079508 Z" id="Close-icon"></path>
            </g>
        </g>
    </g>
</svg>