<?xml version="1.0" encoding="UTF-8"?>
<svg width="135px" height="45px" viewBox="0 0 135 45" version="1.1" xmlns="http://www.w3.org/2000/svg" xmlns:xlink="http://www.w3.org/1999/xlink">
    <title>79776456-0456-497C-A53F-DCAC4A301D1B</title>
    <g id="Web_Sign-in---app-not-linked" stroke="none" stroke-width="1" fill="none" fill-rule="evenodd">
        <g id="1.1-step-1" transform="translate(-1246.000000, -521.000000)" fill-rule="nonzero">
            <g id="936w-|--Download-auth-app-modal" transform="translate(456.000000, 300.000000)">
                <g id="Download_on_the_App_Store_Badge_US-UK_RGB_blk_092917" transform="translate(790.000000, 221.000000)">
                    <g id="Group">
                        <g id="Path">
                            <path d="M123.901616,-0.00014625 L10.726515,-0.00014625 C10.3139775,-0.00014625 9.90639,-0.00014625 9.49494375,0.00225 C9.150525,0.0045 8.80885125,0.01103625 8.461125,0.0165375 C7.70570289,0.0254270291 6.95205728,0.0918857924 6.2067375,0.21533625 C5.46246459,0.341474206 4.74150658,0.579280208 4.0682475,0.92071125 C3.39581184,1.26503068 2.78138815,1.71243847 2.24726625,2.24670375 C1.71034031,2.77946662 1.26277108,3.39526843 0.92176875,4.07043 C0.579825272,4.74424776 0.342720561,5.46630558 0.21864375,6.211665 C0.0933873088,6.95608302 0.0259856782,7.70908561 0.01704375,8.463915 C0.00660375,8.80884 0.00550125,9.1549125 0,9.4998825 L0,35.503425 C0.00550125,35.8527375 0.00660375,36.1911375 0.01704375,36.5405625 C0.0259884203,37.2953545 0.093390052,38.0483194 0.21864375,38.7927 C0.342377947,39.5384952 0.579496678,40.2609675 0.92176875,40.9350375 C1.26261624,41.6080158 1.71024841,42.2213245 2.24726625,42.751125 C2.77936293,43.2877658 3.39418376,43.735478 4.0682475,44.0771625 C4.74150147,44.4195074 5.46238175,44.6587288 6.2067375,44.7868125 C6.95218398,44.9092741 7.70575209,44.9757598 8.461125,44.9857125 C8.80885125,44.9933625 9.150525,44.99775 9.49494375,44.99775 C9.90637875,45 10.314,45 10.726515,45 L123.901616,45 C124.305941,45 124.716791,45 125.121116,44.99775 C125.463904,44.99775 125.815466,44.9933625 126.158254,44.9857125 C126.912199,44.9762892 127.664348,44.9097992 128.408254,44.7868125 C129.155011,44.6578272 129.878476,44.418669 130.554979,44.0771625 C131.228435,43.7352802 131.842688,43.2875802 132.374329,42.751125 C132.909961,42.2192495 133.358549,41.6063894 133.703629,40.9350375 C134.043332,40.2604771 134.278194,39.5380626 134.400116,38.7927 C134.52557,38.0482173 134.595364,37.2954198 134.608916,36.5405625 C134.613304,36.1911375 134.613304,35.8527375 134.613304,35.503425 C134.622079,35.0947125 134.622079,34.68825 134.622079,34.2729 L134.622079,10.7281462 C134.622079,10.31616 134.622079,9.90747 134.613304,9.4998825 C134.613304,9.1549125 134.613304,8.80884 134.608916,8.46387 C134.595367,7.70897525 134.525573,6.95614013 134.400116,6.21162 C134.277854,5.4666918 134.043006,4.74469119 133.703629,4.070385 C133.009194,2.71709559 131.90802,1.61552857 130.554979,0.92061 C129.878473,0.580013303 129.154931,0.342270461 128.408254,0.215235 C127.664477,0.091240631 126.912249,0.0247587355 126.158254,0.01638 C125.815466,0.01089 125.463904,0.0042975 125.121116,0.00210375 C124.716791,-0.00014625 124.305941,-0.00014625 123.901616,-0.00014625 L123.901616,-0.00014625 Z" fill="#A6A6A6"></path>
                            <path d="M9.50043375,44.015625 C9.15766875,44.015625 8.82318375,44.0112375 8.4831075,44.0035875 C7.77861199,43.9944083 7.07576307,43.9330782 6.380325,43.8201 C5.73186409,43.7084192 5.10367977,43.5006725 4.5164925,43.2037125 C3.93468942,42.909213 3.40403824,42.523057 2.9448675,42.0600375 C2.47905037,41.6024722 2.09123633,41.0717745 1.79679375,40.488975 C1.49910667,39.9023878 1.29308949,39.273637 1.18591875,38.624625 C1.07018365,37.9272542 1.00756617,37.2221024 0.99860625,36.51525 C0.99147375,36.2779875 0.98213625,35.4880125 0.98213625,35.4880125 L0.98213625,9.4998825 C0.98213625,9.4998825 0.99208125,8.72204625 0.9986625,8.493525 C1.00724156,7.78779231 1.06949492,7.08373473 1.18488375,6.38744625 C1.29225231,5.73665634 1.49842898,5.10609248 1.79627625,4.51758375 C2.08963668,3.93518683 2.47529766,3.40409283 2.93830875,2.94489 C3.40079943,2.4813241 3.93314806,2.09317963 4.51594125,1.79461125 C5.101779,1.4986053 5.72877613,1.29232411 6.37592625,1.18267875 C7.07364825,1.06856566 7.77893719,1.00687059 8.485875,0.99811125 L9.500985,0.984375 L125.115604,0.984375 L126.142841,0.9986625 C126.843349,1.0069866 127.542231,1.06813126 128.233541,1.18157625 C128.887243,1.29259695 129.520774,1.50031748 130.113304,1.7979075 C131.28085,2.3996093 132.230859,3.35155832 132.830179,4.52032875 C133.123272,5.10477476 133.326268,5.7301951 133.432279,6.37536375 C133.549042,7.0773653 133.61439,7.78695563 133.627804,8.498475 C133.631066,8.817075 133.631066,9.1593 133.631066,9.4998825 C133.639954,9.9217575 133.639954,10.3233038 133.639954,10.7281463 L133.639954,34.2729 C133.639954,34.6816125 133.639954,35.080425 133.631066,35.4825 C133.631066,35.84835 133.631066,36.1834875 133.626679,36.5284125 C133.613556,37.2272351 133.549296,37.9241598 133.434416,38.6136 C133.329442,39.2672938 133.124547,39.9009523 132.826916,40.49235 C132.530392,41.0688238 132.144805,41.5949245 131.684366,42.0512625 C131.224782,42.5167702 130.693195,42.9051855 130.110041,43.201575 C129.519153,43.5008179 128.886554,43.7093328 128.233541,43.8201 C127.538156,43.9336811 126.835239,43.9950152 126.130691,44.0035875 C125.801179,44.0112375 125.456141,44.015625 125.121116,44.015625 L123.901616,44.017875 L9.50043375,44.015625 Z" fill="#000000"></path>
                        </g>
                        <g id="_Group_" transform="translate(11.196429, 9.000000)" fill="#FFFFFF">
                            <g id="_Group_3">
                                <path d="M16.6685614,13.838265 C16.6931505,11.9297353 17.6937097,10.1668344 19.3196914,9.1671975 C18.2892731,7.69557686 16.6252625,6.79598815 14.8296364,6.7398075 C12.9404914,6.541515 11.1090477,7.87024125 10.1463739,7.87024125 C9.16507018,7.87024125 7.68288268,6.759495 6.08681143,6.79233375 C3.98679785,6.86018072 2.07647575,8.02521616 1.05477643,9.8611875 C-1.12097357,13.62816 0.501940179,19.1643412 2.58612643,22.2092775 C3.62888893,23.7002962 4.84757893,25.3658025 6.44221018,25.30674 C8.00265268,25.2420187 8.58544768,24.3117 10.4690352,24.3117 C12.3351402,24.3117 12.8819239,25.30674 14.5089102,25.2691875 C16.1833377,25.2420075 17.2383064,23.7715425 18.2444839,22.266405 C18.9937071,21.2039997 19.5702331,20.0298104 19.9527064,18.7873312 C17.9639951,17.9462039 16.6708826,15.9975386 16.6685614,13.838265 L16.6685614,13.838265 Z" id="_Path_"></path>
                                <path d="M13.5954777,4.73725125 C14.5084451,3.64126714 14.9582295,2.23256526 14.8493127,0.81030375 C13.4545015,0.956801798 12.1660867,1.62343088 11.2407852,2.677365 C10.3270925,3.71721265 9.86421789,5.07761176 9.95411143,6.45892875 C11.3676254,6.47348261 12.709727,5.83892237 13.5954777,4.73725125 L13.5954777,4.73725125 Z" id="_Path_2"></path>
                            </g>
                            <g id="Group" transform="translate(27.053571, 10.125000)">
                                <path d="M9.34005375,11.4071062 L4.01497875,11.4071062 L2.73616875,15.1831125 L0.48067875,15.1831125 L5.52450375,1.2128625 L7.86787875,1.2128625 L12.9117037,15.1831125 L10.61775,15.1831125 L9.34005375,11.4071062 Z M4.5664875,9.6646725 L8.7874875,9.6646725 L6.70667625,3.53649375 L6.64844625,3.53649375 L4.5664875,9.6646725 Z" id="Shape"></path>
                                <path d="M23.8046513,10.0909462 C23.8046513,13.2561112 22.1105588,15.2896725 19.5540413,15.2896725 C18.2325997,15.3587977 16.987874,14.6666595 16.3493325,13.5076725 L16.3009575,13.5076725 L16.3009575,18.5526 L14.2102575,18.5526 L14.2102575,4.9976775 L16.233975,4.9976775 L16.233975,6.69177 L16.2724275,6.69177 C16.9393368,5.54004891 18.1854048,4.84820869 19.5155888,4.89110625 C22.100625,4.8911175 23.8046513,6.9345675 23.8046513,10.0909462 Z M21.6557213,10.0909462 C21.6557213,8.02882125 20.5900425,6.673095 18.9640688,6.673095 C17.3666588,6.673095 16.2921938,8.05737375 16.2921938,10.0909462 C16.2921938,12.1431937 17.3666588,13.5175837 18.9640688,13.5175837 C20.5900538,13.5175837 21.6557213,12.1717575 21.6557213,10.0909462 Z" id="Shape"></path>
                                <path d="M35.0150962,10.0909462 C35.0150962,13.2561112 33.3210037,15.2896725 30.7644862,15.2896725 C29.4430447,15.3587977 28.198319,14.6666595 27.5597775,13.5076725 L27.5114025,13.5076725 L27.5114025,18.5526 L25.4207025,18.5526 L25.4207025,4.9976775 L27.444375,4.9976775 L27.444375,6.69177 L27.4828275,6.69177 C28.1497417,5.5400496 29.3958144,4.84821346 30.726,4.8911175 C33.311115,4.8911175 35.0150962,6.9345675 35.0150962,10.0909462 Z M32.8661775,10.0909462 C32.8661775,8.02882125 31.8004875,6.673095 30.1745137,6.673095 C28.5771037,6.673095 27.5026387,8.05737375 27.5026387,10.0909462 C27.5026387,12.1431937 28.5771037,13.5175837 30.1745137,13.5175837 C31.8004987,13.5175837 32.8661775,12.1717575 32.8661775,10.0909462 L32.8661775,10.0909462 Z" id="Shape"></path>
                                <path d="M42.4242787,11.2906462 C42.5791912,12.6760275 43.9250287,13.5856462 45.7641225,13.5856462 C47.5263337,13.5856462 48.7941525,12.6759825 48.7941525,11.4268275 C48.7941525,10.3424737 48.0295012,9.6932025 46.21896,9.2482425 L44.4084187,8.81208 C41.843115,8.1924525 40.65219,6.99274125 40.65219,5.0459625 C40.65219,2.63556 42.7527787,0.97992 45.7355587,0.97992 C48.6875587,0.97992 50.711265,2.63556 50.7793837,5.0459625 L48.6688837,5.0459625 C48.5425462,3.651795 47.3900737,2.81025 45.70587,2.81025 C44.0216662,2.81025 42.869205,3.661695 42.869205,4.90095 C42.869205,5.88862125 43.6052925,6.46979625 45.405945,6.9147 L46.945125,7.2926325 C49.8114562,7.97049 51.0023812,9.1218825 51.0023812,11.16531 C51.0023812,13.778955 48.9204675,15.41592 45.6091875,15.41592 C42.5110387,15.41592 40.4192475,13.8174075 40.2841125,11.290545 L42.4242787,11.2906462 Z" id="Path"></path>
                                <path d="M55.5144862,2.587275 L55.5144862,4.9976775 L57.4513762,4.9976775 L57.4513762,6.6533175 L55.5144862,6.6533175 L55.5144862,12.2684287 C55.5144862,13.1407425 55.9023075,13.5472387 56.7537412,13.5472387 C56.9836816,13.5432292 57.2132499,13.5270817 57.4414875,13.4988638 L57.4414875,15.144615 C57.0586819,15.216142 56.6695922,15.2485363 56.2802288,15.2412975 C54.2181038,15.2412975 53.4138975,14.4667575 53.4138975,12.491415 L53.4138975,6.6533175 L51.9329475,6.6533175 L51.9329475,4.9976775 L53.413875,4.9976775 L53.413875,2.587275 L55.5144862,2.587275 Z" id="Path"></path>
                                <path d="M58.573125,10.0909462 C58.573125,6.8862375 60.4605712,4.8724425 63.4038187,4.8724425 C66.3569437,4.8724425 68.2356037,6.8861925 68.2356037,10.0909462 C68.2356037,13.3044525 66.3668325,15.30945 63.4038187,15.30945 C60.4418512,15.30945 58.573125,13.3044412 58.573125,10.0909462 Z M66.1053487,10.0909462 C66.1053487,7.89258375 65.0979,6.59509875 63.4038075,6.59509875 C61.709715,6.59509875 60.7033687,7.9024725 60.7033687,10.0909462 C60.7033687,12.298095 61.709715,13.5857025 63.4038075,13.5857025 C65.0979,13.5857025 66.1053487,12.298095 66.1053487,10.0909462 L66.1053487,10.0909462 Z" id="Shape"></path>
                                <path d="M69.9593062,4.9976775 L71.953335,4.9976775 L71.953335,6.7313025 L72.00171,6.7313025 C72.2797831,5.61528946 73.3023591,4.8472105 74.4516562,4.891095 C74.6925908,4.89025376 74.9328606,4.91641959 75.1679662,4.9691025 L75.1679662,6.9246675 C74.8638011,6.83172373 74.5465046,6.7890502 74.2285912,6.79833 C73.6139455,6.77339487 73.0191048,7.01835157 72.6002566,7.46888172 C72.1814085,7.91941187 71.9803986,8.53050458 72.0500062,9.141705 L72.0500062,15.18309 L69.9593062,15.18309 L69.9593062,4.9976775 Z" id="Path"></path>
                                <path d="M84.8073375,12.1915237 C84.5260875,14.0405175 82.7254237,15.3094387 80.4215925,15.3094387 C77.4585787,15.3094387 75.6194737,13.3242075 75.6194737,10.1392762 C75.6194737,6.94445625 77.4684675,4.87243125 80.3337075,4.87243125 C83.1516975,4.87243125 84.9237975,6.80821875 84.9237975,9.89647875 L84.9237975,10.6127887 L77.7299512,10.6127887 L77.7299512,10.7391262 C77.6627858,11.4974118 77.924623,12.2480094 78.4488599,12.7999912 C78.9730968,13.351973 79.7092059,13.6521375 80.469945,13.6241325 C81.4845175,13.7191946 82.4410609,13.1365999 82.8221175,12.1915125 L84.8073375,12.1915237 Z M77.7398202,9.15161625 L82.831995,9.15161625 C82.8699361,8.47023468 82.6219086,7.80392597 82.1476688,7.31321049 C81.673429,6.82249501 81.0159759,6.55186546 80.3337075,6.56652375 C79.646042,6.56242001 78.9852271,6.83317646 78.4981412,7.3186124 C78.0110554,7.80404834 77.7380583,8.46394078 77.7398202,9.15161625 L77.7398202,9.15161625 Z" id="Shape"></path>
                            </g>
                        </g>
                    </g>
                    <g id="Group" transform="translate(40.000000, 9.000000)" fill="#FFFFFF">
                        <path d="M3.22993143,0.731 C4.13158464,0.674384181 5.01473402,0.974547428 5.63629862,1.54887182 C6.25786322,2.12319621 6.55232671,2.91114479 6.43864,3.69584 C6.43864,5.60209 5.26118857,6.69784 3.22993143,6.69784 L0.766765714,6.69784 L0.766765714,0.731 L3.22993143,0.731 Z M1.82590857,5.854 L3.11162286,5.854 C3.75599079,5.88770201 4.38341317,5.66555901 4.8196783,5.24925179 C5.25594343,4.83294457 5.45460527,4.26679442 5.36050286,3.708 C5.44775887,3.15152453 5.24623609,2.59004622 4.81105266,2.17713398 C4.37586922,1.76422175 3.75256648,1.5430863 3.11162286,1.57421 L1.82590857,1.57421 L1.82590857,5.854 Z" id="Shape"></path>
                        <path d="M7.63506286,4.44434 C7.54681957,3.63722505 7.98912419,2.85611193 8.77647535,2.42859737 C9.5638265,2.0010828 10.5600935,2.0010828 11.3474447,2.42859737 C12.1347958,2.85611193 12.5771004,3.63722505 12.4888571,4.44434 C12.5787794,5.25232226 12.1368785,6.03495038 11.3488292,6.4633853 C10.5607799,6.89182022 9.56314008,6.89182022 8.77509081,6.4633853 C7.98704154,6.03495038 7.54514064,5.25232226 7.63506286,4.44434 Z M11.4442171,4.44434 C11.4442171,3.46827 10.9430857,2.89747 10.0636343,2.89747 C9.18082286,2.89747 8.68420571,3.46827 8.68420571,4.44435 C8.68420571,5.42824 9.18085714,5.99464 10.0636343,5.99464 C10.9431086,5.99464 11.4442171,5.42432 11.4442171,4.44434 L11.4442171,4.44434 Z" id="Shape"></path>
                        <polygon id="Path" points="18.9408686 6.69775 17.8873029 6.69775 16.8236914 3.38134 16.7433371 3.38134 15.6841829 6.69775 14.6406514 6.69775 13.2221257 2.19482 14.2522629 2.19482 15.1741371 5.63082 15.2500343 5.63082 16.3080686 2.19482 17.2824 2.19482 18.3404343 5.63082 18.4207886 5.63082 19.3381943 2.19482 20.3538171 2.19482"></polygon>
                        <path d="M21.5468914,2.19482 L22.5245714,2.19482 L22.5245714,2.91015 L22.6004686,2.91015 C22.8643941,2.38347794 23.4811118,2.06130747 24.1361829,2.1079 C24.6434021,2.07453177 25.140441,2.2447899 25.4869609,2.57060207 C25.8334808,2.89641424 25.9918778,3.34242376 25.9174286,3.7827 L25.9174286,6.6977 L24.9018057,6.6977 L24.9018057,4.00586 C24.9018057,3.28223 24.5424343,2.92236 23.7913143,2.92236 C23.4472752,2.90833912 23.1133945,3.02648257 22.8772053,3.24581678 C22.641016,3.465151 22.5260743,3.76380101 22.5625143,4.06347 L22.5625143,6.69775 L21.5468914,6.69775 L21.5468914,2.19482 Z" id="Path"></path>
                        <polygon id="Path" points="27.5357371 0.437 28.55136 0.437 28.55136 6.69774 27.5357371 6.69774"></polygon>
                        <path d="M29.9631886,4.44434 C29.8750131,3.63717225 30.3173874,2.85603936 31.104797,2.4285182 C31.8922066,2.00099704 32.8885248,2.00099704 33.6759344,2.4285182 C34.463344,2.85603936 34.9057184,3.63717225 34.8175429,4.44434 C34.9073509,5.25235119 34.465369,6.03495719 33.6772806,6.46337324 C32.8891922,6.89178929 31.8915392,6.89178929 31.1034508,6.46337324 C30.3153624,6.03495719 29.8733806,5.25235119 29.9631886,4.44434 L29.9631886,4.44434 Z M33.7723429,4.44434 C33.7723429,3.46827 33.2712114,2.89747 32.39176,2.89747 C31.5089486,2.89747 31.0123314,3.46827 31.0123314,4.44435 C31.0123314,5.42824 31.5089829,5.99464 32.39176,5.99464 C33.2712229,5.99464 33.7723429,5.42432 33.7723429,4.44434 L33.7723429,4.44434 Z" id="Shape"></path>
                        <path d="M35.8867429,5.42432 C35.8867429,4.61377 36.57648,4.14649 37.8008,4.08008 L39.1947771,4.00977 L39.1947771,3.6211 C39.1947771,3.14551 38.8354057,2.87696 38.1412114,2.87696 C37.5742514,2.87696 37.1813943,3.05909 37.0686629,3.37745 L36.0854057,3.37745 C36.1892,2.60401 37.0206743,2.10792 38.18808,2.10792 C39.4782629,2.10792 40.2059429,2.66992 40.2059429,3.6211 L40.2059429,6.69776 L39.2282629,6.69776 L39.2282629,6.06495 L39.1479086,6.06495 C38.8158498,6.52707633 38.2253413,6.79716323 37.6021486,6.77195 C37.1652756,6.81171181 36.729567,6.68791066 36.4027381,6.43115244 C36.0759091,6.17439423 35.8884641,5.80864331 35.8867429,5.42432 L35.8867429,5.42432 Z M39.1947771,5.03955 L39.1947771,4.66309 L37.93808,4.7334 C37.2293714,4.7749 36.9079429,4.98584 36.9079429,5.38281 C36.9079429,5.78808 37.3097257,6.02392 37.8622286,6.02392 C38.1892984,6.05288986 38.5158016,5.96447505 38.7669947,5.77891559 C39.0181879,5.59335613 39.1725618,5.32654106 39.1947771,5.03955 Z" id="Shape"></path>
                        <path d="M41.5407543,4.44434 C41.5407543,3.02149 42.3766971,2.12012 43.6769143,2.12012 C44.3334592,2.09365013 44.9483743,2.40147287 45.25504,2.91012 L45.3309371,2.91012 L45.3309371,0.437 L46.34656,0.437 L46.34656,6.69774 L45.3733486,6.69774 L45.3733486,5.98631 L45.2929943,5.98631 C44.9631476,6.49073698 44.3406566,6.79335648 43.6769257,6.77195 C42.3677714,6.772 41.5407543,5.87061 41.5407543,4.44434 Z M42.5898971,4.44434 C42.5898971,5.39942 43.1044114,5.97413 43.9649029,5.97413 C44.8209029,5.97413 45.3499429,5.39113 45.3499429,4.44825 C45.3499429,3.50977 44.8153486,2.91846 43.9649029,2.91846 C43.1099543,2.91846 42.5898629,3.49707 42.5898629,4.44434 L42.5898971,4.44434 Z" id="Shape"></path>
                        <path d="M50.5485714,4.44434 C50.4603281,3.63722505 50.9026328,2.85611193 51.6899839,2.42859737 C52.4773351,2.0010828 53.4736021,2.0010828 54.2609532,2.42859737 C55.0483044,2.85611193 55.490609,3.63722505 55.4023657,4.44434 C55.4922879,5.25232226 55.050387,6.03495038 54.2623378,6.4633853 C53.4742885,6.89182022 52.4766487,6.89182022 51.6885994,6.4633853 C50.9005501,6.03495038 50.4586492,5.25232226 50.5485714,4.44434 L50.5485714,4.44434 Z M54.3577143,4.44434 C54.3577143,3.46827 53.8565943,2.89747 52.9771429,2.89747 C52.0943314,2.89747 51.5977143,3.46827 51.5977143,4.44435 C51.5977143,5.42824 52.0943657,5.99464 52.9771429,5.99464 C53.8566057,5.99464 54.3577143,5.42432 54.3577143,4.44434 Z" id="Shape"></path>
                        <path d="M56.7650857,2.19482 L57.7427657,2.19482 L57.7427657,2.91015 L57.8186629,2.91015 C58.0825884,2.38347794 58.6993061,2.06130747 59.3543771,2.1079 C59.8615963,2.07453177 60.3586353,2.2447899 60.7051552,2.57060207 C61.0516751,2.89641424 61.2100721,3.34242376 61.1356229,3.7827 L61.1356229,6.6977 L60.12,6.6977 L60.12,4.00586 C60.12,3.28223 59.7606286,2.92236 59.0095086,2.92236 C58.6654695,2.90833912 58.3315888,3.02648257 58.0953996,3.24581678 C57.8592103,3.465151 57.7442686,3.76380101 57.7807086,4.06347 L57.7807086,6.69775 L56.7650857,6.69775 L56.7650857,2.19482 Z" id="Path"></path>
                        <path d="M66.8744686,1.07373 L66.8744686,2.21533 L67.9894286,2.21533 L67.9894286,2.96387 L66.8744686,2.96387 L66.8744686,5.2793 C66.8744686,5.75098 67.0965714,5.95752 67.6021486,5.95752 C67.7315835,5.95715754 67.8608885,5.95030966 67.9894286,5.93701 L67.9894286,6.67724 C67.8070394,6.70579072 67.6222464,6.72098004 67.4369714,6.72265 C66.3075086,6.72265 65.8577257,6.37499 65.8577257,5.50683 L65.8577257,2.96383 L65.0407657,2.96383 L65.0407657,2.21529 L65.8577257,2.21529 L65.8577257,1.07373 L66.8744686,1.07373 Z" id="Path"></path>
                        <path d="M69.3766971,0.437 L70.3833943,0.437 L70.3833943,2.91845 L70.4637486,2.91845 C70.7403517,2.38716856 71.367863,2.06458754 72.0328914,2.11181 C72.5372304,2.08779728 73.0275409,2.26180371 73.3702734,2.58643385 C73.713006,2.91106399 73.8724628,3.35250564 73.8052114,3.79052 L73.8052114,6.69775 L72.7885714,6.69775 L72.7885714,4.00975 C72.7885714,3.29051 72.4057143,2.92625 71.6881257,2.92625 C71.3347874,2.90089367 70.9866732,3.01329096 70.7368484,3.2333935 C70.4870235,3.45349605 70.3609622,3.75886031 70.3923657,4.06785 L70.3923657,6.69775 L69.3767429,6.69775 L69.3766971,0.437 Z" id="Path"></path>
                        <path d="M79.7271429,5.48193 C79.4423509,6.33130948 78.5029702,6.88010304 77.4972343,6.78466 C76.8110216,6.8005102 76.151533,6.5516307 75.6937466,6.10405516 C75.2359601,5.65647963 75.0261559,5.05545594 75.12,4.46045 C75.0286484,3.86379048 75.2376665,3.26180373 75.6929038,2.81044696 C76.1481411,2.35909018 76.8048023,2.10277675 77.4927657,2.10791 C78.9246857,2.10791 79.7885257,2.96391 79.7885257,4.37791 L79.7885257,4.688 L76.1545943,4.688 L76.1545943,4.7378 C76.1224366,5.07194014 76.252858,5.40244775 76.5137838,5.6480407 C76.7747095,5.89363365 77.141929,6.03152392 77.5251314,6.0278 C78.0220135,6.07999468 78.5056943,5.86433304 78.7494629,5.4819 L79.7271429,5.48193 Z M76.1545714,4.03076 L78.7538971,4.03076 C78.7797862,3.72516044 78.6569811,3.42420507 78.4157451,3.20205909 C78.174509,2.97991311 77.8372771,2.85723623 77.4871543,2.86426 C77.132288,2.86035891 76.7906605,2.98202124 76.5397672,3.20164888 C76.288874,3.42127653 76.1499807,3.72025374 76.1545943,4.03076 L76.1545714,4.03076 Z" id="Shape"></path>
                    </g>
                </g>
            </g>
        </g>
    </g>
</svg>