<?xml version="1.0" encoding="UTF-8"?>
<svg width="27px" height="27px" viewBox="0 0 27 27" version="1.1" xmlns="http://www.w3.org/2000/svg" xmlns:xlink="http://www.w3.org/1999/xlink">
    <title>1D010187-F03E-44A2-A002-11CE531C94EC</title>
    <g id="Web_Sign-in---app-not-linked" stroke="none" stroke-width="1" fill="none" fill-rule="evenodd">
        <g id="1.1-something-wrong" transform="translate(-1414.000000, -311.000000)" fill="#0033AA" stroke="#FFFFFF" stroke-width="0.25">
            <g id="1008w-Web/Download-auth-app---something-wrong" transform="translate(444.000000, 301.000000)">
                <g id="icn_close/standard" transform="translate(971.000000, 11.000000)">
                    <path d="M24.863415,24.2016377 C25.0455283,24.3844633 25.0455283,24.6802315 24.863415,24.8630572 C24.7723583,24.9541171 24.6523611,25 24.5323639,25 C24.4123668,25 24.2923696,24.9541171 24.2020188,24.8630572 L12.4994706,13.1615078 L0.799040023,24.8630572 C0.70657161,24.9541171 0.587986165,25 0.467988988,25 C0.348697678,25 0.228700501,24.9541171 0.13764382,24.8630572 C-0.0458812734,24.6802315 -0.0458812734,24.3844633 0.13764382,24.2016377 L11.8394861,12.5000882 L0.13764382,0.798538806 C-0.0458812734,0.615713126 -0.0458812734,0.319944941 0.13764382,0.13711926 C0.319757182,-0.0457064201 0.615514929,-0.0457064201 0.799040023,0.13711926 L12.4994706,11.8386687 L24.2020188,0.13711926 C24.384838,-0.0457064201 24.6798899,-0.0457064201 24.863415,0.13711926 C25.0455283,0.319944941 25.0455283,0.615713126 24.863415,0.798538806 L13.1615727,12.5000882 L24.863415,24.2016377 Z" id="Close-icon"></path>
                </g>
            </g>
        </g>
    </g>
</svg>