<?xml version="1.0" encoding="UTF-8"?>
<svg width="135px" height="45px" viewBox="0 0 135 45" version="1.1" xmlns="http://www.w3.org/2000/svg" xmlns:xlink="http://www.w3.org/1999/xlink">
    <title>DC589B75-F00E-4E53-BCD0-8E183C7FEEDB</title>
    <defs>
        <path d="M5.013,9.274 L0.888,5.146 L0.888,4.854 L5.015,0.727 L9.997,3.557 C11.393,4.351 11.393,5.649 9.997,6.442 L5.108,9.22 L5.013,9.274" id="path-1"></path>
        <linearGradient x1="80.7483261%" y1="49.99766%" x2="-157.307011%" y2="49.99766%" id="linearGradient-3">
            <stop stop-color="#EC942D" offset="0%"></stop>
            <stop stop-color="#FBDE1E" offset="100%"></stop>
        </linearGradient>
        <path d="M17.108,4.22 L12.888,0 L0.435,12.453 C0.896,12.94 1.656,13 2.512,12.514 L17.108,4.22" id="path-4"></path>
        <linearGradient x1="86.244827%" y1="30.9016387%" x2="-50.1397469%" y2="136.01242%" id="linearGradient-6">
            <stop stop-color="#DD4245" offset="0%"></stop>
            <stop stop-color="#B72162" offset="100%"></stop>
        </linearGradient>
        <path d="M17.108,8.78 L2.512,0.486 C1.656,0 0.896,0.06 0.435,0.547 L12.888,13 L17.108,8.78" id="path-7"></path>
        <linearGradient x1="-50.7485156%" y1="-36.4820568%" x2="60.6069694%" y2="49.3389544%" id="linearGradient-9">
            <stop stop-color="#6CB966" offset="0%"></stop>
            <stop stop-color="#299567" offset="100%"></stop>
        </linearGradient>
    </defs>
    <g id="Web_Sign-in---app-not-linked" stroke="none" stroke-width="1" fill="none" fill-rule="evenodd">
        <g id="1.1-step-1" transform="translate(-1246.000000, -583.000000)">
            <g id="936w-|--Download-auth-app-modal" transform="translate(456.000000, 300.000000)">
                <g id="get-the-app/google-play" transform="translate(790.000000, 283.000000)">
                    <path d="M130,45 L5,45 C2.25,45 0,42.46875 0,39.375 L0,5.625 C0,2.53125 2.25,0 5,0 L130,0 C132.75,0 135,2.53125 135,5.625 L135,39.375 C135,42.46875 132.75,45 130,45" id="Fill-3" fill="#0A0B09"></path>
                    <path d="M130,0 L5,0 C2.25,0 0,2.53125 0,5.625 L0,39.375 C0,42.46875 2.25,45 5,45 L130,45 C132.75,45 135,42.46875 135,39.375 L135,5.625 C135,2.53125 132.75,0 130,0 Z M129.812594,1 C132.121649,1 134,3.1096875 134,5.703125 L134,39.296875 C134,41.8903125 132.121649,44 129.812594,44 L5.1874063,44 C2.87835082,44 1,41.8903125 1,39.296875 L1,5.703125 C1,3.1096875 2.87835082,1 5.1874063,1 L129.812594,1 L129.812594,1 Z" id="Fill-4" fill="#9E9F9B"></path>
                    <path d="M47.419,12.243 C47.419,13.081 47.17,13.749 46.673,14.246 C46.109,14.838 45.374,15.134 44.469,15.134 C43.603,15.134 42.867,14.834 42.261,14.233 C41.655,13.633 41.352,12.888 41.352,12 C41.352,11.111 41.655,10.367 42.261,9.767 C42.867,9.166 43.603,8.866 44.469,8.866 C44.899,8.866 45.31,8.95 45.701,9.117 C46.091,9.285 46.405,9.508 46.639,9.788 L46.112,10.315 C45.714,9.841 45.168,9.604 44.469,9.604 C43.837,9.604 43.292,9.825 42.831,10.27 C42.37,10.714 42.139,11.291 42.139,12 C42.139,12.709 42.37,13.286 42.831,13.73 C43.292,14.175 43.837,14.396 44.469,14.396 C45.139,14.396 45.698,14.173 46.145,13.727 C46.435,13.436 46.603,13.031 46.648,12.511 L44.469,12.511 L44.469,11.791 L47.377,11.791 C47.405,11.947 47.419,12.098 47.419,12.243" id="Fill-5" fill="#FFFFFE"></path>
                    <path d="M47.419,12.243 L47.319,12.243 C47.318,13.062 47.079,13.698 46.603,14.175 L46.602,14.176 L46.601,14.177 C46.055,14.748 45.352,15.033 44.469,15.034 C43.626,15.033 42.921,14.745 42.332,14.162 C41.744,13.579 41.453,12.866 41.452,12 C41.453,11.134 41.744,10.421 42.332,9.838 C42.921,9.255 43.626,8.967 44.469,8.966 C44.886,8.966 45.283,9.047 45.661,9.209 C46.04,9.372 46.34,9.586 46.563,9.852 L46.639,9.788 L46.568,9.717 L46.041,10.245 L46.112,10.315 L46.188,10.251 C45.773,9.753 45.189,9.502 44.469,9.504 C43.814,9.503 43.238,9.737 42.761,10.198 C42.28,10.66 42.038,11.269 42.039,12 C42.038,12.731 42.28,13.34 42.761,13.802 C43.238,14.263 43.814,14.497 44.469,14.497 C45.161,14.498 45.751,14.263 46.216,13.797 C46.526,13.486 46.702,13.056 46.748,12.52 L46.757,12.411 L44.569,12.411 L44.569,11.89 L47.377,11.89 L47.377,11.791 L47.278,11.808 C47.305,11.96 47.319,12.104 47.319,12.243 L47.519,12.243 C47.519,12.091 47.504,11.935 47.475,11.773 L47.46,11.691 L44.369,11.691 L44.369,12.611 L46.648,12.611 L46.648,12.511 L46.548,12.503 C46.504,13.006 46.344,13.385 46.074,13.656 C45.644,14.084 45.117,14.296 44.469,14.297 C43.861,14.296 43.345,14.086 42.9,13.659 C42.459,13.232 42.24,12.688 42.239,12 C42.24,11.312 42.459,10.768 42.9,10.341 C43.345,9.914 43.861,9.704 44.469,9.704 C45.146,9.705 45.656,9.929 46.035,10.38 L46.105,10.463 L46.71,9.858 L46.775,9.794 L46.716,9.723 C46.47,9.43 46.142,9.198 45.74,9.025 C45.337,8.853 44.912,8.7659976 44.469,8.7659976 C43.58,8.765 42.813,9.077 42.191,9.696 C41.566,10.313 41.251,11.089 41.2519976,12 C41.251,12.911 41.566,13.687 42.191,14.305 C42.813,14.923 43.58,15.235 44.469,15.2340024 C45.395,15.235 46.163,14.927 46.746,14.315 L46.673,14.246 L46.744,14.317 C47.262,13.799 47.519,13.1 47.519,12.243 L47.419,12.243" id="Fill-6" fill="#FFFFFE"></path>
                    <polyline id="Fill-7" fill="#FFFFFE" points="52.028 9.737 49.295 9.737 49.295 11.64 51.759 11.64 51.759 12.36 49.295 12.36 49.295 14.263 52.028 14.263 52.028 15 48.525 15 48.525 9 52.028 9 52.028 9.737"></polyline>
                    <polyline id="Fill-8" fill="#FFFFFE" points="52.028 9.737 52.028 9.637 49.195 9.637 49.195 11.74 51.659 11.74 51.659 12.26 49.195 12.26 49.195 14.363 51.928 14.363 51.928 14.9 48.625 14.9 48.625 9.1 51.928 9.1 51.928 9.737 52.028 9.737 52.028 9.637 52.028 9.737 52.128 9.737 52.128 8.9 48.425 8.9 48.425 15.1 52.128 15.1 52.128 14.163 49.395 14.163 49.395 12.46 51.859 12.46 51.859 11.54 49.395 11.54 49.395 9.837 52.128 9.837 52.128 9.737 52.028 9.737"></polyline>
                    <polyline id="Fill-9" fill="#FFFFFE" points="55.279 15 54.507 15 54.507 9.737 52.832 9.737 52.832 9 56.955 9 56.955 9.737 55.279 9.737 55.279 15"></polyline>
                    <polyline id="Fill-10" fill="#FFFFFE" points="55.279 15 55.279 14.9 54.607 14.9 54.607 9.637 52.931 9.637 52.931 9.1 56.855 9.1 56.855 9.637 55.179 9.637 55.179 15 55.279 15 55.279 14.9 55.279 15 55.379 15 55.379 9.837 57.055 9.837 57.055 8.9 52.731 8.9 52.731 9.837 54.407 9.837 54.407 15.1 55.379 15.1 55.379 15 55.279 15"></polyline>
                    <polygon id="Fill-11" fill="#FFFFFE" points="59.938 15 60.709 15 60.709 9 59.938 9"></polygon>
                    <polyline id="Fill-12" fill="#FFFFFE" points="59.938 15 60.038 15 60.038 9.1 60.608 9.1 60.608 14.9 59.938 14.9 59.938 15 60.038 15 59.938 15 59.938 15.1 60.809 15.1 60.809 8.9 59.838 8.9 59.838 15.1 59.938 15.1 59.938 15"></polyline>
                    <polyline id="Fill-13" fill="#FFFFFE" points="64.128 15 63.357 15 63.357 9.737 61.681 9.737 61.681 9 65.804 9 65.804 9.737 64.128 9.737 64.128 15"></polyline>
                    <polyline id="Fill-14" fill="#FFFFFE" points="64.128 15 64.128 14.9 63.457 14.9 63.457 9.637 61.781 9.637 61.781 9.1 65.704 9.1 65.704 9.637 64.028 9.637 64.028 15 64.128 15 64.128 14.9 64.128 15 64.228 15 64.228 9.837 65.904 9.837 65.904 8.9 61.581 8.9 61.581 9.837 63.257 9.837 63.257 15.1 64.228 15.1 64.228 15 64.128 15"></polyline>
                    <path d="M69.779,13.722 C70.224,14.172 70.767,14.396 71.409,14.396 C72.052,14.396 72.596,14.172 73.039,13.722 C73.483,13.272 73.706,12.698 73.706,12 C73.706,11.302 73.483,10.728 73.039,10.278 C72.596,9.828 72.052,9.604 71.409,9.604 C70.767,9.604 70.224,9.828 69.779,10.278 C69.336,10.728 69.113,11.302 69.113,12 C69.113,12.698 69.336,13.272 69.779,13.722 Z M73.609,14.225 C73.02,14.831 72.286,15.134 71.409,15.134 C70.532,15.134 69.799,14.831 69.21,14.225 C68.62,13.619 68.326,12.877 68.326,12 C68.326,11.123 68.62,10.381 69.21,9.775 C69.799,9.169 70.532,8.866 71.409,8.866 C72.281,8.866 73.013,9.17 73.605,9.779 C74.197,10.388 74.493,11.128 74.493,12 C74.493,12.877 74.198,13.619 73.609,14.225 L73.609,14.225 Z" id="Fill-15" fill="#FFFFFE"></path>
                    <path d="M69.779,13.722 L69.708,13.792 C70.169,14.26 70.743,14.498 71.409,14.4970031 C72.075,14.498 72.65,14.26 73.11,13.792 C73.574,13.325 73.807,12.719 73.8060032,12 C73.807,11.281 73.574,10.676 73.11,10.208 C72.65,9.74 72.075,9.503 71.409,9.50399685 C70.743,9.503 70.169,9.74 69.708,10.208 C69.246,10.676 69.012,11.281 69.0129968,12 C69.012,12.719 69.246,13.325 69.708,13.792 L69.851,13.652 C69.426,13.221 69.214,12.677 69.213,12 C69.214,11.323 69.426,10.779 69.851,10.348 L69.85,10.348 C70.279,9.916 70.79,9.705 71.409,9.704 C72.029,9.705 72.541,9.916 72.968,10.348 C73.393,10.78 73.605,11.323 73.606,12 C73.605,12.677 73.393,13.22 72.968,13.652 C72.541,14.084 72.029,14.296 71.409,14.297 C70.79,14.295 70.279,14.084 69.85,13.652 L69.779,13.722 Z M73.609,14.225 L73.538,14.155 C72.965,14.743 72.263,15.033 71.409,15.034 C70.555,15.033 69.854,14.743 69.282,14.155 L69.279,14.152 L69.282,14.155 C68.71,13.566 68.427,12.855 68.426,12 C68.427,11.145 68.71,10.434 69.282,9.845 C69.854,9.257 70.555,8.967 71.409,8.966 C72.258,8.967 72.957,9.259 73.534,9.849 C74.108,10.441 74.392,11.151 74.393,12 C74.392,12.855 74.109,13.566 73.538,14.155 L73.681,14.294 C74.288,13.672 74.594,12.899 74.5930024,12 C74.594,11.106 74.286,10.335 73.677,9.71 C73.068,9.082 72.304,8.765 71.409,8.76599763 C70.509,8.765 69.744,9.081 69.138,9.706 C68.531,10.329 68.225,11.101 68.2259976,12 C68.225,12.899 68.531,13.672 69.138,14.294 L69.141,14.297 L69.138,14.294 C69.744,14.92 70.509,15.235 71.409,15.2340024 C72.309,15.235 73.075,14.92 73.681,14.294 L73.609,14.225 L73.609,14.225 Z" id="Fill-16" fill="#FFFFFE"></path>
                    <polyline id="Fill-17" fill="#FFFFFE" points="75.575 15 75.575 9 76.514 9 79.43 13.667 79.463 13.667 79.43 12.511 79.43 9 80.201 9 80.201 15 79.396 15 76.346 10.106 76.312 10.106 76.346 11.263 76.346 15 75.575 15"></polyline>
                    <polyline id="Fill-18" fill="#FFFFFE" points="75.575 15 75.675 15 75.675 9.1 76.458 9.1 79.374 13.768 79.566 13.768 79.53 12.51 79.53 9.1 80.101 9.1 80.101 14.9 79.452 14.9 76.401 10.006 76.21 10.006 76.246 11.264 76.246 14.9 75.575 14.9 75.575 15 75.675 15 75.575 15 75.575 15.1 76.446 15.1 76.446 11.261 76.412 10.104 76.312 10.106 76.312 10.206 76.346 10.206 76.346 10.106 76.261 10.159 79.341 15.1 80.301 15.1 80.301 8.9 79.33 8.9 79.33 12.513 79.363 13.67 79.463 13.667 79.463 13.568 79.43 13.568 79.43 13.667 79.515 13.615 76.569 8.9 75.475 8.9 75.475 15.1 75.575 15.1 75.575 15"></polyline>
                    <path d="M106.936,32 L108.802,32 L108.802,19.499 L106.936,19.499 L106.936,32 Z M123.743,24.002 L121.604,29.422 L121.54,29.422 L119.32,24.002 L117.31,24.002 L120.639,31.577 L118.741,35.791 L120.688,35.791 L125.818,24.002 L123.743,24.002 Z M113.161,30.58 C112.549,30.58 111.697,30.275 111.697,29.519 C111.697,28.554 112.759,28.184 113.675,28.184 C114.496,28.184 114.881,28.361 115.38,28.602 C115.235,29.76 114.238,30.58 113.161,30.58 Z M113.386,23.729 C112.035,23.729 110.636,24.324 110.057,25.643 L111.713,26.334 C112.067,25.643 112.726,25.417 113.418,25.417 C114.383,25.417 115.364,25.996 115.38,27.026 L115.38,27.154 C115.042,26.961 114.319,26.672 113.434,26.672 C111.649,26.672 109.831,27.653 109.831,29.486 C109.831,31.159 111.295,32.237 112.935,32.237 C114.19,32.237 114.881,31.674 115.316,31.014 L115.38,31.014 L115.38,31.979 L117.181,31.979 L117.181,27.187 C117.181,24.967 115.525,23.729 113.386,23.729 Z M101.854,25.524 L99.2,25.524 L99.2,21.239 L101.854,21.239 C103.249,21.239 104.041,22.394 104.041,23.381 C104.041,24.35 103.249,25.524 101.854,25.524 Z M101.806,19.499 L97.335,19.499 L97.335,32 L99.2,32 L99.2,27.264 L101.806,27.264 C103.874,27.264 105.907,25.766 105.907,23.381 C105.907,20.996 103.874,19.499 101.806,19.499 Z M77.425,30.582 C76.136,30.582 75.057,29.503 75.057,28.021 C75.057,26.523 76.136,25.427 77.425,25.427 C78.698,25.427 79.696,26.523 79.696,28.021 C79.696,29.503 78.698,30.582 77.425,30.582 Z M79.567,24.702 L79.503,24.702 C79.084,24.203 78.279,23.752 77.264,23.752 C75.137,23.752 73.188,25.62 73.188,28.021 C73.188,30.405 75.137,32.258 77.264,32.258 C78.279,32.258 79.084,31.807 79.503,31.291 L79.567,31.291 L79.567,31.903 C79.567,33.531 78.698,34.401 77.296,34.401 C76.152,34.401 75.443,33.579 75.153,32.886 L73.526,33.563 C73.993,34.691 75.234,36.076 77.296,36.076 C79.487,36.076 81.34,34.787 81.34,31.646 L81.34,24.009 L79.567,24.009 L79.567,24.702 Z M82.629,32 L84.498,32 L84.498,19.498 L82.629,19.498 L82.629,32 Z M87.252,27.876 C87.204,26.233 88.525,25.395 89.475,25.395 C90.217,25.395 90.845,25.765 91.054,26.297 L87.252,27.876 Z M93.052,26.458 C92.698,25.508 91.618,23.752 89.411,23.752 C87.22,23.752 85.4,25.475 85.4,28.005 C85.4,30.389 87.204,32.258 89.62,32.258 C91.57,32.258 92.698,31.066 93.165,30.373 L91.715,29.406 C91.232,30.115 90.571,30.582 89.62,30.582 C88.67,30.582 87.993,30.147 87.558,29.294 L93.245,26.942 L93.052,26.458 Z M47.744,25.057 L47.744,26.861 L52.061,26.861 C51.932,27.876 51.594,28.617 51.079,29.133 C50.45,29.761 49.467,30.453 47.744,30.453 C45.086,30.453 43.007,28.311 43.007,25.653 C43.007,22.994 45.086,20.852 47.744,20.852 C49.178,20.852 50.225,21.416 50.998,22.141 L52.271,20.868 C51.191,19.837 49.758,19.047 47.744,19.047 C44.103,19.047 41.042,22.012 41.042,25.653 C41.042,29.294 44.103,32.258 47.744,32.258 C49.709,32.258 51.191,31.614 52.351,30.405 C53.543,29.213 53.914,27.538 53.914,26.184 C53.914,25.765 53.882,25.379 53.817,25.057 L47.744,25.057 Z M58.823,30.582 C57.534,30.582 56.422,29.519 56.422,28.005 C56.422,26.474 57.534,25.427 58.823,25.427 C60.111,25.427 61.223,26.474 61.223,28.005 C61.223,29.519 60.111,30.582 58.823,30.582 Z M58.823,23.752 C56.47,23.752 54.553,25.54 54.553,28.005 C54.553,30.453 56.47,32.258 58.823,32.258 C61.175,32.258 63.092,30.453 63.092,28.005 C63.092,25.54 61.175,23.752 58.823,23.752 Z M68.136,30.582 C66.847,30.582 65.735,29.519 65.735,28.005 C65.735,26.474 66.847,25.427 68.136,25.427 C69.425,25.427 70.536,26.474 70.536,28.005 C70.536,29.519 69.425,30.582 68.136,30.582 Z M68.136,23.752 C65.784,23.752 63.867,25.54 63.867,28.005 C63.867,30.453 65.784,32.258 68.136,32.258 C70.488,32.258 72.405,30.453 72.405,28.005 C72.405,25.54 70.488,23.752 68.136,23.752 L68.136,23.752 Z" id="Fill-19" fill="#FFFFFE"></path>
                    <path d="M10.435,9.547 C10.144,9.855 9.973,10.332 9.973,10.951 L9.973,33.049 C9.973,33.668 10.144,34.145 10.435,34.453 L10.509,34.525 L22.888,22.146 L22.888,21.854 L10.509,9.475 L10.435,9.547" id="Fill-20" fill="#60C2E3"></path>
                    <g id="Group-23" transform="translate(22.000000, 17.000000)">
                        <mask id="mask-2" fill="white">
                            <use xlink:href="#path-1"></use>
                        </mask>
                        <g id="Clip-22"></g>
                        <path d="M5.013,9.274 L0.888,5.146 L0.888,4.854 L5.015,0.727 L9.997,3.557 C11.393,4.351 11.393,5.649 9.997,6.442 L5.108,9.22 L5.013,9.274" id="Fill-21" fill="url(#linearGradient-3)" mask="url(#mask-2)"></path>
                    </g>
                    <g id="Group-26" transform="translate(10.000000, 22.000000)">
                        <mask id="mask-5" fill="white">
                            <use xlink:href="#path-4"></use>
                        </mask>
                        <g id="Clip-25"></g>
                        <path d="M17.108,4.22 L12.888,0 L0.435,12.453 C0.896,12.94 1.656,13 2.512,12.514 L17.108,4.22" id="Fill-24" fill="url(#linearGradient-6)" mask="url(#mask-5)"></path>
                    </g>
                    <g id="Group-29" transform="translate(10.000000, 9.000000)">
                        <mask id="mask-8" fill="white">
                            <use xlink:href="#path-7"></use>
                        </mask>
                        <g id="Clip-28"></g>
                        <path d="M17.108,8.78 L2.512,0.486 C1.656,0 0.896,0.06 0.435,0.547 L12.888,13 L17.108,8.78" id="Fill-27" fill="url(#linearGradient-9)" mask="url(#mask-8)"></path>
                    </g>
                </g>
            </g>
        </g>
    </g>
</svg>