<?xml version="1.0" encoding="UTF-8"?>
<svg width="485px" height="72px" viewBox="0 0 485 72" version="1.1" xmlns="http://www.w3.org/2000/svg" xmlns:xlink="http://www.w3.org/1999/xlink">
    <title>ACE9AD12-9EED-4A7B-BF3D-17A8F3F86594</title>
    <g id="RelyComply" stroke="none" stroke-width="1" fill="none" fill-rule="evenodd">
        <g id="RelyComply_signup_5" transform="translate(-132.000000, -194.000000)" fill="#FFFFFF">
            <g id="Group-7" transform="translate(120.000000, 42.275000)">
                <g id="Group-3" transform="translate(12.000000, 151.725000)">
                    <path d="M22.7792797,36.6314006 L13.5739892,36.6314006 L13.5739892,58.1828705 L0,58.1828705 L0,0.952817871 L22.1460981,0.952817871 C37.0652803,0.952817871 48.259117,4.42361577 48.259117,18.6345767 C48.259117,27.0803543 43.575099,31.8978015 36.9889933,34.423404 L51.1961641,58.1828705 L35.2420225,58.1828705 L22.7792797,36.6314006 Z M13.5739892,12.3180294 L13.5739892,25.2636482 L22.5402473,25.2636482 C28.9737791,25.2636482 33.8942866,24.2396866 33.8942866,18.7921093 C33.8942866,13.5020644 28.9737791,12.3180294 22.5402473,12.3180294 L13.5739892,12.3180294 Z M97.9549713,44.8408794 C94.1406244,54.8670643 85.1743663,59.2068321 76.6836301,59.2068321 C62.7943216,59.2068321 53.2686259,50.8449024 53.2686259,36.7101669 C53.2686259,23.1318771 63.6639927,14.4498006 76.1267354,14.4498006 C90.3364491,14.4498006 98.984845,25.1061157 98.1151739,40.2648128 L66.4408372,40.2648128 C66.8426151,46.266295 71.5240902,49.1044218 76.286938,49.1044218 C81.2837325,49.1044218 84.3809821,47.3690228 85.8863777,44.8408794 L97.9549713,44.8408794 Z M66.5984969,32.3703991 L85.0929936,32.3703991 C84.859047,27.0041289 81.1260728,24.3972192 76.1267354,24.3972192 C71.4427175,24.3972192 67.3155941,26.7652892 66.5984969,32.3703991 L66.5984969,32.3703991 Z M105.019142,58.1828705 L118.117609,58.1828705 L118.117609,0.950277023 L105.019142,0.950277023 L105.019142,58.1828705 Z M127.961167,72 L127.961167,62.6039454 L130.580352,62.6039454 C135.981467,62.6039454 137.090171,62.210114 138.359077,59.0543812 L138.755769,57.9465716 L122.801627,15.7151427 L137.169,15.7151427 L145.029098,42.312736 L153.438461,15.7151427 L167.487972,15.7151427 L150.74299,58.1828705 C146.455664,68.9967181 143.279584,72 132.16712,72 L127.961167,72 Z M225.438073,36.8702403 C223.296953,50.1309242 212.578639,59.2068321 198.056148,59.2068321 C180.118546,59.2068321 169.240029,47.8441613 169.240029,29.5297314 C169.240029,11.4490595 180.431323,0 198.450298,0 C212.817671,0 223.136751,9.32237005 225.041381,22.3442143 L211.706425,22.3442143 C210.198486,14.5311077 204.403222,11.1365353 197.974776,11.1365353 C189.959561,11.1365353 183.607402,17.8418322 183.607402,29.5297314 C183.607402,41.6063804 189.878189,48.0779193 198.132435,48.0779193 C204.085359,48.0779193 210.358689,45.5548576 212.100574,36.8702403 L225.438073,36.8702403 Z M274.813523,36.7889332 C274.813523,52.1839291 264.021464,59.2068321 252.191903,59.2068321 C240.367427,59.2068321 229.570283,52.1839291 229.570283,36.7889332 C229.570283,21.3964781 240.367427,14.4498006 252.191903,14.4498006 C264.021464,14.4498006 274.813523,21.3964781 274.813523,36.7889332 L274.813523,36.7889332 Z M242.905239,36.7889332 C242.905239,45.7123902 246.877246,49.1044218 252.191903,49.1044218 C257.516731,49.1044218 261.478566,45.7123902 261.478566,36.7889332 C261.478566,27.7104845 257.351443,24.5572926 252.191903,24.5572926 C247.034906,24.5572926 242.905239,27.7104845 242.905239,36.7889332 L242.905239,36.7889332 Z M294.742214,58.1828705 L281.643746,58.1828705 L281.643746,15.7151427 L294.742214,15.7151427 L294.742214,21.3177118 C296.646844,18.161979 301.24949,14.7699474 307.675393,14.7699474 C314.584446,14.7699474 318.393707,17.211702 320.377168,21.947842 C323.63462,17.211702 328.949277,14.7699474 334.983574,14.7699474 C345.935835,14.7699474 349.350947,21.1627201 349.350947,32.6854642 L349.350947,58.1828705 L336.25248,58.1828705 L336.25248,35.925045 C336.25248,29.8447966 335.93716,24.8723577 329.668917,24.8723577 C324.267802,24.8723577 322.047852,28.503229 322.047852,36.0825775 L322.047852,58.1828705 L308.951927,58.1828705 L308.951927,35.925045 C308.951927,29.8447966 308.628979,24.8723577 302.360736,24.8723577 C296.962164,24.8723577 294.742214,28.503229 294.742214,36.0825775 L294.742214,58.1828705 Z M371.026609,21.4752444 C373.805996,16.8204115 379.524974,14.7699474 384.125076,14.7699474 C395.15871,14.7699474 402.934892,23.0556516 402.934892,36.9490066 C402.934892,50.8449024 395.15871,59.2068321 384.125076,59.2068321 C379.524974,59.2068321 373.805996,57.156368 371.026609,52.5015351 L371.026609,72 L357.93577,72 L357.93577,15.7151427 L371.026609,15.7151427 L371.026609,21.4752444 Z M370.39597,36.9490066 C370.39597,45.7123902 374.680753,49.1044218 379.840293,49.1044218 C385.078663,49.1044218 389.365989,44.8408794 389.365989,36.9490066 C389.365989,29.0571338 385.078663,24.8723577 379.840293,24.8723577 C374.680753,24.8723577 370.39597,28.1830822 370.39597,36.9490066 L370.39597,36.9490066 Z M409.526084,58.1828705 L422.624551,58.1828705 L422.624551,0.950277023 L409.526084,0.950277023 L409.526084,58.1828705 Z M432.468109,72 L432.468109,62.6039454 L435.089836,62.6039454 C440.485866,62.6039454 441.597112,62.210114 442.871104,59.0543812 L443.265253,57.9465716 L427.308569,15.7151427 L441.675942,15.7151427 L449.53604,42.312736 L457.950489,15.7151427 L472,15.7151427 L455.249931,58.1828705 C450.962605,68.9967181 447.786526,72 436.679148,72 L432.468109,72 Z" id="Fill-1"></path>
                    <polygon id="Fill-3" points="467 46.6638655 467 45 474 45 474 46.6638655 471.436923 46.6638655 471.436923 54 469.558291 54 469.558291 46.6638655"></polygon>
                    <polygon id="Fill-4" points="478.587149 45 480.542144 51.1890756 480.565557 51.1890756 482.415193 45 485 45 485 54 483.281478 54 483.281478 47.6218487 483.255723 47.6218487 481.207076 54 479.792924 54 477.744277 47.6848739 477.720864 47.6848739 477.720864 54 476 54 476 45"></polygon>
                </g>
            </g>
        </g>
    </g>
</svg>